<svg width="15" height="21" viewBox="0 0 15 21" fill="none" xmlns="http://www.w3.org/2000/svg">
<path d="M2.53204 0.460756L3.68492 0.0995515C4.76601 -0.238553 5.92103 0.308504 6.3839 1.37742L7.30535 3.50684C7.70607 4.434 7.48321 5.52497 6.75462 6.20327L4.72423 8.0912C4.84959 9.22101 5.23745 10.333 5.88675 11.4271C6.50333 12.4856 7.33039 13.4122 8.31894 14.1519L10.7576 13.3539C11.6811 13.0525 12.6883 13.4001 13.254 14.2159L14.5751 16.1164C15.2341 17.0657 15.1151 18.374 14.2976 19.1783L13.4222 20.0403C12.5501 20.8982 11.304 21.21 10.1522 20.8572C7.43071 20.0256 4.93102 17.5571 2.64883 13.4515C0.363431 9.33966 -0.44337 5.84942 0.2295 2.98499C0.512362 1.77957 1.38774 0.81881 2.53204 0.460756Z" fill="white"/>
</svg>
