<svg width="60" height="61" viewBox="0 0 60 61" fill="none" xmlns="http://www.w3.org/2000/svg">
<path d="M1.75781 3.63282H7.31461C8.18025 3.63282 8.90992 4.25263 9.04954 5.10682C9.05503 5.13794 9.06098 5.16953 9.06785 5.2002L17.3841 43.0152C15.5649 43.8474 14.2969 45.6839 14.2969 47.8121C14.2969 50.2405 15.9471 52.2899 18.1851 52.8997C17.9457 53.5016 17.8125 54.1572 17.8125 54.8434C17.8125 57.7511 20.1782 60.1168 23.086 60.1168C25.9937 60.1168 28.3594 57.7511 28.3594 54.8434C28.3594 54.2272 28.2518 53.6344 28.0568 53.0842H42.724C42.529 53.6344 42.4215 54.2258 42.4215 54.842C42.4215 57.7502 44.7872 60.1168 47.6949 60.1168C50.6026 60.1168 52.9683 57.7511 52.9683 54.8434C52.9683 54.2272 52.8612 53.6358 52.6662 53.0855H54.7262C55.6971 53.0855 56.484 52.2986 56.484 51.3277C56.484 50.3568 55.6971 49.5699 54.7262 49.5699H19.5703C18.6008 49.5699 17.8125 48.7812 17.8125 47.8121C17.8125 46.8215 18.6392 46.068 19.4669 46.068C19.536 46.068 19.606 46.063 19.6761 46.0543H48.6768C50.9501 46.0543 52.9606 44.6055 53.6793 42.4485L59.9094 23.7589C60.2161 22.8379 59.7185 21.8422 58.7975 21.5351C57.877 21.2284 56.8813 21.7259 56.5742 22.647L50.3444 41.3366C50.1046 42.0557 49.4344 42.5387 48.6768 42.5387H20.8791L12.5102 4.48746C12.0703 1.95191 9.89366 0.117188 7.31461 0.117188H1.75781C0.786897 0.117188 0 0.904084 0 1.875C0 2.84592 0.786897 3.63282 1.75781 3.63282ZM24.8438 54.8434C24.8438 55.8124 24.055 56.6012 23.086 56.6012C22.1164 56.6012 21.3281 55.8124 21.3281 54.8434C21.3281 53.8743 22.1164 53.0855 23.086 53.0855C24.055 53.0855 24.8438 53.8743 24.8438 54.8434ZM49.4527 54.8434C49.4527 55.8124 48.6645 56.6012 47.6949 56.6012C46.7258 56.6012 45.9371 55.8124 45.9371 54.8434C45.9371 53.8743 46.7258 53.0855 47.6949 53.0855C48.6645 53.0855 49.4527 53.8743 49.4527 54.8434Z" fill="#133E6D"/>
<path d="M24.8438 39.023H45.9371C46.908 39.023 47.6949 38.2361 47.6949 37.2652V23.931L48.2099 24.446C48.8961 25.1326 50.0094 25.1326 50.696 24.446C51.3822 23.7593 51.3822 22.6465 50.696 21.9599L36.6335 7.8978C35.9468 7.21116 34.834 7.21116 34.1474 7.8978L20.0853 21.9599C19.3987 22.6465 19.3987 23.7593 20.0853 24.446C20.7715 25.1326 21.8843 25.1326 22.571 24.446L23.086 23.931V37.2652C23.086 38.2361 23.8729 39.023 24.8438 39.023ZM37.148 35.5074H33.6324V28.4761H37.148V35.5074ZM35.3902 11.6268L44.1866 20.4227C44.1829 20.4703 44.1793 20.5179 44.1793 20.5664V35.5079H40.6636V26.7188C40.6636 25.7479 39.8768 24.961 38.9058 24.961H31.8746C30.9041 24.961 30.1168 25.7479 30.1168 26.7188V35.5079H26.6016V20.5664C26.6016 20.5179 26.5979 20.4703 26.5943 20.4227L35.3902 11.6268Z" fill="#133E6D"/>
<path d="M37.148 19.6875C37.148 20.658 36.3611 21.4453 35.3902 21.4453C34.4197 21.4453 33.6324 20.658 33.6324 19.6875C33.6324 18.7166 34.4197 17.9297 35.3902 17.9297C36.3611 17.9297 37.148 18.7166 37.148 19.6875Z" fill="#133E6D"/>
</svg>
