<svg width="60" height="60" viewBox="0 0 60 60" fill="none" xmlns="http://www.w3.org/2000/svg">
<path d="M29.9974 10.6683C19.338 10.6683 10.666 19.3403 10.666 29.9997C10.666 40.659 19.338 49.331 29.9974 49.331C40.6567 49.331 49.3287 40.659 49.3287 29.9997C49.3287 19.3403 40.6568 10.6683 29.9974 10.6683ZM29.9974 45.8162C21.2761 45.8162 14.1808 38.7209 14.1808 29.9997C14.1808 21.2784 21.2761 14.1831 29.9974 14.1831C38.7186 14.1831 45.8139 21.2784 45.8139 29.9997C45.8139 38.7209 38.7187 45.8162 29.9974 45.8162Z" fill="#133E6D"/>
<path d="M37.5418 23.4848L28.24 32.7864L22.453 26.9996C21.7668 26.3132 20.654 26.3132 19.9677 26.9996C19.2813 27.6859 19.2813 28.7985 19.9677 29.4849L26.9973 36.5145C27.3404 36.8576 27.7902 37.0293 28.2398 37.0293C28.6895 37.0293 29.1394 36.8577 29.4824 36.5145L40.0268 25.9701C40.7132 25.2837 40.7132 24.1711 40.0268 23.4848C39.3407 22.7984 38.228 22.7984 37.5418 23.4848Z" fill="#133E6D"/>
<path d="M57.4834 17.678C57.4776 17.6743 51.3454 14.0037 51.3454 14.0037L49.9689 8.30295C49.3582 5.77335 47.0322 4.08261 44.4372 4.28389L37.4493 4.8247C37.4493 4.8247 33.4241 1.27218 33.4161 1.2655C31.4351 -0.421834 28.5595 -0.421834 26.5785 1.2655C26.5707 1.27218 22.5453 4.8247 22.5453 4.8247L15.5574 4.28389C12.9833 4.08402 10.6751 5.74523 10.0413 8.23991L8.12502 14.3458C8.12502 14.3458 2.52396 17.6734 2.51658 17.678C0.29956 19.0405 -0.589098 21.7754 0.403715 24.1809L2.79471 29.9751L0.403715 35.7691C-0.589098 38.1746 0.29956 40.9095 2.51669 42.272C2.52349 42.2763 8.64369 45.923 8.64369 45.923L10.0259 51.6471C10.6038 54.0405 12.7171 55.6825 15.1407 55.6823C15.5114 55.6823 15.095 55.6963 22.4728 55.1309C22.4728 55.1309 26.5721 58.7282 26.5786 58.7337C27.5691 59.5774 28.7832 59.9993 29.9975 59.9993C31.2116 59.9993 32.4259 59.5774 33.4163 58.7337C33.4229 58.7281 37.5222 55.1309 37.5222 55.1309L44.4373 55.6661C47.0315 55.8666 49.3584 54.1767 49.969 51.6471L51.3455 45.9462C58.8493 41.4545 57.2582 42.411 57.4835 42.2719C59.7004 40.9094 60.5891 38.1745 59.5963 35.769L57.2053 29.9748L59.5963 24.1807C60.589 21.7754 59.7004 19.0406 57.4834 17.678ZM53.6795 30.6455L56.3472 37.11C56.6771 37.9092 56.3839 38.8177 55.6501 39.2733L48.9077 43.3094C48.503 43.5515 48.2127 43.9463 48.102 44.4047L46.5523 50.8224C46.3488 51.6655 45.5746 52.2286 44.7084 52.162L37.0551 51.5696C36.5837 51.5332 36.1162 51.6885 35.7603 52.0009L31.1288 56.0653C30.4714 56.6185 29.5233 56.6185 28.866 56.065L24.2346 52.0009C23.8787 51.6885 23.411 51.5328 22.9399 51.5696L15.2865 52.162C14.4211 52.2288 13.6462 51.6655 13.4427 50.8223L11.8869 44.3793C11.776 43.9197 11.4843 43.5241 11.0782 43.2821L4.34861 39.2723C3.61589 38.8163 3.32322 37.9087 3.65291 37.1099L6.32064 30.6453C6.4979 30.2159 6.4979 29.7339 6.32064 29.3046L3.65256 22.84C3.3231 22.0417 3.61542 21.1345 4.34732 20.6783L10.4982 17.0242C10.8703 16.8031 11.1477 16.4526 11.2773 16.0396C13.5441 8.81236 13.4162 9.23659 13.4424 9.12775C13.6459 8.28467 14.4187 7.72066 15.2863 7.78814L23.0153 8.38636C23.4896 8.42292 23.9575 8.26616 24.3138 7.95182L28.8676 3.93276C29.524 3.38141 30.4702 3.38141 31.1268 3.93253L35.6808 7.95182C36.0371 8.26639 36.5062 8.42292 36.9793 8.38636L44.7083 7.78814C45.5728 7.72136 46.3487 8.28455 46.5522 9.12787L48.1018 15.5454C48.2126 16.0039 48.5029 16.3986 48.9076 16.6409L55.65 20.6768C56.3838 21.1324 56.6771 22.0408 56.3471 22.84L53.6794 29.3046C53.5022 29.7341 53.5022 30.2161 53.6795 30.6455Z" fill="#133E6D"/>
</svg>
