<svg width="54" height="45" viewBox="0 0 54 45" fill="none" xmlns="http://www.w3.org/2000/svg">
<path d="M40.8483 7.4985C41.1648 6.80319 41.3438 6.02042 41.3438 5.19231C41.3438 2.32927 39.2147 0 36.5977 0C33.9807 0 31.8516 2.32927 31.8516 5.19231C31.8516 6.02042 32.0305 6.80319 32.3471 7.4985C24.7993 9.57912 19.1953 17.0673 19.1953 25.9615C19.1953 36.4593 27.002 45 36.5977 45C46.1933 45 54 36.4593 54 25.9615C54 17.0673 48.396 9.57912 40.8483 7.4985ZM35.0156 5.19231C35.0156 4.23796 35.7253 3.46154 36.5977 3.46154C37.47 3.46154 38.1797 4.23796 38.1797 5.19231C38.1797 6.14665 37.47 6.92308 36.5977 6.92308C35.7253 6.92308 35.0156 6.14665 35.0156 5.19231ZM38.1797 41.4418V39.8077C38.1797 38.8518 37.4714 38.0769 36.5977 38.0769C35.724 38.0769 35.0156 38.8518 35.0156 39.8077V41.4418C28.426 40.6411 23.1796 34.9014 22.4478 27.6923H23.9414C24.8151 27.6923 25.5234 26.9174 25.5234 25.9615C25.5234 25.0057 24.8151 24.2308 23.9414 24.2308H22.4478C23.1796 17.0217 28.426 11.282 35.0156 10.4813V12.1154C35.0156 13.0712 35.724 13.8462 36.5977 13.8462C37.4714 13.8462 38.1797 13.0712 38.1797 12.1154V10.4813C44.7693 11.282 50.0157 17.0218 50.7476 24.2308H49.2539C48.3802 24.2308 47.6719 25.0057 47.6719 25.9615C47.6719 26.9174 48.3802 27.6923 49.2539 27.6923H50.7476C50.0157 34.9014 44.7693 40.6411 38.1797 41.4418Z" fill="#133E6D"/>
<path d="M14.4492 6.92308H11.0742C10.2005 6.92308 9.49219 7.698 9.49219 8.65385C9.49219 9.60969 10.2005 10.3846 11.0742 10.3846H14.4492C15.3229 10.3846 16.0312 9.60969 16.0312 8.65385C16.0312 7.698 15.3229 6.92308 14.4492 6.92308Z" fill="#133E6D"/>
<path d="M14.4492 17.3077H7.91016C7.03645 17.3077 6.32812 18.0826 6.32812 19.0385C6.32812 19.9943 7.03645 20.7692 7.91016 20.7692H14.4492C15.3229 20.7692 16.0312 19.9943 16.0312 19.0385C16.0312 18.0826 15.3229 17.3077 14.4492 17.3077Z" fill="#133E6D"/>
<path d="M14.4492 27.6923H4.74609C3.87239 27.6923 3.16406 28.4672 3.16406 29.4231C3.16406 30.3789 3.87239 31.1538 4.74609 31.1538H14.4492C15.3229 31.1538 16.0312 30.3789 16.0312 29.4231C16.0312 28.4672 15.3229 27.6923 14.4492 27.6923Z" fill="#133E6D"/>
<path d="M14.4492 38.0769H1.58203C0.708328 38.0769 0 38.8518 0 39.8077C0 40.7635 0.708328 41.5385 1.58203 41.5385H14.4492C15.3229 41.5385 16.0312 40.7635 16.0312 39.8077C16.0312 38.8518 15.3229 38.0769 14.4492 38.0769Z" fill="#133E6D"/>
<path d="M42.9258 24.2308H38.1797V19.0385C38.1797 18.0826 37.4714 17.3077 36.5977 17.3077C35.724 17.3077 35.0156 18.0826 35.0156 19.0385V25.9615C35.0156 26.9174 35.724 27.6923 36.5977 27.6923H42.9258C43.7995 27.6923 44.5078 26.9174 44.5078 25.9615C44.5078 25.0057 43.7995 24.2308 42.9258 24.2308Z" fill="#133E6D"/>
</svg>
