<svg width="60" height="62" viewBox="0 0 60 62" fill="none" xmlns="http://www.w3.org/2000/svg">
<path d="M42.7878 53.94C43.4706 55.0779 43.243 56.4435 42.105 57.1263C37.7807 59.8574 32.5461 61.4506 27.3114 61.4506C18.8904 61.4506 11.1521 57.5815 5.91746 51.2088L4.77949 55.7607C4.3243 57.1263 2.95873 57.8091 1.59316 57.3539C0.455189 56.8987 -2.20443e-07 55.7607 0.227595 54.6227L2.73114 45.2914C2.95873 44.1534 4.3243 43.4706 5.46227 43.6982C6.14506 43.9258 6.82784 44.1534 7.73822 44.381C9.55898 44.6086 11.3797 45.0638 13.4281 45.519C13.8833 45.7465 14.5661 45.7465 15.0213 45.9741C16.1592 46.2017 17.0696 47.5673 16.6144 48.7053C16.3868 49.8433 15.0213 50.7536 13.8833 50.2984L10.697 49.3881C15.0213 53.94 20.9387 56.6711 27.539 56.6711C31.8633 56.6711 36.1876 55.3055 39.8291 53.0296C40.7395 52.5744 42.105 52.802 42.7878 53.94ZM2.27595 37.7807C3.64152 37.7807 4.5519 36.6428 4.5519 35.2772C4.5519 34.822 4.5519 34.5944 4.5519 34.1392C4.5519 23.2147 12.2901 14.1109 22.3043 11.8349L19.8007 14.3385C18.4352 15.704 19.118 17.7524 20.9387 18.2076C21.6215 18.4352 22.5319 18.2076 22.9871 17.5248C24.125 16.3868 25.263 15.2488 26.401 14.1109C27.0838 13.4281 27.7666 12.7453 28.2217 12.2901C28.9045 11.6073 29.8149 10.9245 30.2701 9.78657C30.9529 8.19341 29.3597 7.05544 28.2217 5.91746C27.3114 4.77949 25.9458 3.41392 24.8078 2.27595C24.3526 1.82076 23.8974 1.36557 23.2147 0.682784C22.3043 -0.227595 20.9387 -0.227595 20.0283 0.682784C19.118 1.59316 19.118 2.95873 20.0283 3.86911L23.2147 7.05544C10.2418 9.10379 0 20.4835 0 34.1392V35.5048C0 36.8704 1.13797 37.7807 2.27595 37.7807ZM59.8574 44.6086C59.6298 43.4706 58.2643 42.5602 57.1263 43.0154L52.5744 44.1534C53.94 40.9671 54.6227 37.5531 54.6227 34.1392C54.6227 23.8974 48.9329 14.5661 39.8291 9.78657C38.6911 9.10379 37.3255 9.55898 36.8704 10.697C36.1876 11.8349 36.6428 13.2005 37.7807 13.6557C45.2914 17.7524 50.0708 25.4906 50.0708 34.1392C50.0708 36.4152 49.6157 38.6911 48.9329 40.9671L48.0225 37.7807C47.7949 36.6428 46.4293 35.7324 45.2914 36.1876C44.1534 36.4152 43.243 37.7807 43.6982 38.9187L46.2017 48.2501C46.4293 48.7053 46.8845 49.3881 47.3397 49.6157C47.7949 49.8433 48.4777 50.0708 49.1605 49.8433L58.4919 47.3397C59.6298 47.1121 60.3126 45.7465 59.8574 44.6086Z" fill="#133E6D"/>
</svg>
