<svg width="43" height="60" viewBox="0 0 43 60" fill="none" xmlns="http://www.w3.org/2000/svg">
<path d="M2.0763 56.4171C2.33125 58.4594 4.07636 60 6.13505 60H36.7686C38.8273 60 40.5724 58.4594 40.8274 56.4171L42.8724 40.0566C43.1097 38.3347 42.1239 36.5541 40.5397 35.8465V30.6494C40.5397 28.0508 39.0959 25.714 36.7714 24.5524L32.2068 22.2701C33.1693 20.5182 33.7215 18.5085 33.7215 16.3721C34.4741 16.3721 35.0849 15.7614 35.0849 15.0088V11.1395C35.0849 6.34183 32.0268 2.09902 27.4759 0.582951C25.4363 -0.267792 22.021 0.0866846 19.8547 0.0116992C17.1824 0.0116992 14.6602 0.986509 12.6956 2.76843C9.95794 3.05747 7.81745 5.37929 7.81745 8.19192V15.0088C7.81745 15.5323 8.11739 16.0109 8.59048 16.2372C8.77863 16.3272 8.9804 16.3721 9.18082 16.3721C9.18082 18.5085 9.73298 20.5182 10.6969 22.2701L6.13232 24.5524C3.80778 25.714 2.36397 28.0508 2.36397 30.6494V35.8465C1.85952 36.0824 1.40006 36.4151 1.02377 36.8432C0.248016 37.7225 -0.113278 38.8937 0.0312395 40.0566L2.0763 56.4171ZM10.5442 12.1716V8.19192C10.5442 6.68812 11.7671 5.46518 13.2709 5.46518C13.6322 5.46518 13.9799 5.32203 14.2348 5.06571C15.7359 3.56464 17.7305 2.73844 19.8547 2.73844H23.957C28.508 2.68118 32.4249 6.58178 32.3581 11.1395V13.614C26.8706 13.3686 21.5848 11.6399 16.9929 8.58048C16.7066 8.3678 16.3562 8.17693 15.9977 8.19192C15.695 8.19192 15.3937 8.29281 15.1456 8.4905L10.5442 12.1716ZM21.4512 25.9157C16.1885 25.9157 11.9076 21.6348 11.9076 16.3721C11.8926 16.0899 11.9621 14.8793 11.8312 14.6338L16.0767 11.2377C20.5268 14.2398 25.9857 15.6277 30.9947 16.3721C30.9947 21.6348 26.7138 25.9157 21.4512 25.9157ZM25.8985 27.7958C23.8643 30.6971 19.038 30.6957 17.0038 27.7958C19.7333 28.9138 23.1676 28.9138 25.8985 27.7958ZM5.09071 30.6494C5.09071 29.0897 5.95645 27.6881 7.35118 26.9914L12.2989 24.5169C13.2709 24.5524 13.3527 26.4093 13.3527 26.4093C14.2839 30.1326 17.6146 32.7326 21.4512 32.7326C25.2877 32.7326 28.6184 30.1326 29.5496 26.4079C29.5496 26.4079 29.6314 24.5169 30.6021 24.5169L35.5498 26.9914C36.9459 27.6881 37.8116 29.0897 37.8116 30.6494V35.4593H5.09071V30.6494ZM3.06747 38.6469C3.32923 38.3497 3.69325 38.1861 4.08999 38.1861H38.8137C39.2104 38.1861 39.5731 38.3497 39.8362 38.6469C40.0993 38.9441 40.2166 39.3245 40.1675 39.7185L38.1225 56.0789C38.0352 56.7606 37.4544 57.2733 36.7673 57.2733H6.13505C5.44927 57.2733 4.86712 56.7606 4.78259 56.0789L2.73753 39.7185C2.68709 39.3245 2.80434 38.9441 3.06747 38.6469Z" fill="#133E6D"/>
<path d="M21.4512 51.8198C26.8446 51.678 26.8433 43.78 21.4512 43.6396C16.0577 43.7813 16.059 51.6793 21.4512 51.8198ZM21.4512 46.3663C23.2331 46.3758 23.2331 49.0835 21.4512 49.093C19.6692 49.0835 19.6692 46.3758 21.4512 46.3663Z" fill="#133E6D"/>
</svg>
