<svg width="51" height="46" viewBox="0 0 51 46" fill="none" xmlns="http://www.w3.org/2000/svg">
<path d="M43.5293 24.3168H38.5371C37.8576 24.3168 37.1998 24.4177 36.5738 24.6035C35.3388 21.9627 32.8175 20.1482 29.9122 20.1482H21.0878C18.1825 20.1482 15.6612 21.9627 14.4262 24.6035C13.8002 24.4177 13.1424 24.3168 12.4629 24.3168H7.4707C3.35136 24.3168 0 27.9623 0 32.4432V41.1241C0 43.8127 2.01081 46 4.48242 46H46.5176C48.9892 46 51 43.8127 51 41.1241V32.4432C51 27.9623 47.6486 24.3168 43.5293 24.3168ZM13.6171 28.2749V42.7495H4.48242C3.65855 42.7495 2.98828 42.0204 2.98828 41.1243V32.4433C2.98828 29.7547 4.9991 27.5674 7.4707 27.5674H12.4629C12.8685 27.5674 13.2613 27.6273 13.6352 27.7378C13.6245 27.9156 13.6171 28.0943 13.6171 28.2749ZM34.3946 42.7495H16.6054V28.2748C16.6054 25.5862 18.6162 23.3989 21.0878 23.3989H29.9122C32.3838 23.3989 34.3946 25.5862 34.3946 28.2748V42.7495ZM48.0117 41.1243C48.0117 42.0204 47.3414 42.7495 46.5176 42.7495H37.3829V28.2748C37.3829 28.0941 37.3755 27.9153 37.3648 27.7377C37.7387 27.6273 38.1315 27.5673 38.5371 27.5673H43.5293C46.0009 27.5673 48.0117 29.7546 48.0117 32.4432V41.1243Z" fill="#133E6D"/>
<path d="M9.96691 8.96886C6.30637 8.96886 3.32835 12.2083 3.32835 16.1901C3.32825 20.172 6.30637 23.4114 9.96691 23.4114C13.6274 23.4114 16.6055 20.172 16.6055 16.1901C16.6055 12.2083 13.6275 8.96886 9.96691 8.96886ZM9.96681 20.1608C7.95401 20.1608 6.31653 18.3796 6.31653 16.1901C6.31653 14.0006 7.95401 12.2194 9.96681 12.2194C11.9796 12.2194 13.6171 14.0006 13.6171 16.1901C13.6171 18.3796 11.9796 20.1608 9.96681 20.1608Z" fill="#133E6D"/>
<path d="M25.5 0C20.6096 0 16.631 4.32781 16.631 9.64747C16.631 14.9671 20.6096 19.2949 25.5 19.2949C30.3904 19.2949 34.369 14.9671 34.369 9.64747C34.369 4.32792 30.3904 0 25.5 0ZM25.5 16.0444C22.2573 16.0444 19.6193 13.1748 19.6193 9.64747C19.6193 6.12028 22.2573 3.25057 25.5 3.25057C28.7427 3.25057 31.3807 6.12017 31.3807 9.64747C31.3807 13.1748 28.7427 16.0444 25.5 16.0444Z" fill="#133E6D"/>
<path d="M41.0331 8.96886C37.3726 8.96886 34.3945 12.2083 34.3945 16.1901C34.3946 20.172 37.3726 23.4114 41.0331 23.4114C44.6936 23.4114 47.6717 20.172 47.6717 16.1901C47.6717 12.2083 44.6936 8.96886 41.0331 8.96886ZM41.0331 20.1608C39.0204 20.1608 37.3828 18.3796 37.3828 16.1901C37.3829 14.0006 39.0204 12.2194 41.0331 12.2194C43.0459 12.2194 44.6834 14.0006 44.6834 16.1901C44.6834 18.3796 43.0459 20.1608 41.0331 20.1608Z" fill="#133E6D"/>
</svg>
