<svg width="58" height="60" viewBox="0 0 58 60" fill="none" xmlns="http://www.w3.org/2000/svg">
<path d="M32.8414 0C22.7804 0 14.5952 8.25059 14.5952 18.3919C14.5952 28.5333 22.7804 36.7839 32.8414 36.7839C42.9024 36.7839 51.0877 28.5333 51.0877 18.3919C51.0877 8.25059 42.9024 0 32.8414 0ZM32.8414 33.2684C24.7189 33.2684 18.1108 26.5949 18.1108 18.392C18.1108 10.1891 24.7189 3.51562 32.8414 3.51562C40.9639 3.51562 47.5721 10.1891 47.5721 18.3919C47.5721 26.5948 40.9639 33.2684 32.8414 33.2684Z" fill="#133E6D"/>
<path d="M34.7189 16.7021C33.4609 16.2574 32.0727 15.7228 31.315 15.1283C31.1905 15.0308 31.0973 14.721 31.1692 14.3391C31.2047 14.1509 31.369 13.5217 31.9923 13.3339C33.1679 12.98 33.964 13.4418 34.2517 13.6568C35.0293 14.238 36.1307 14.079 36.7122 13.3015C37.2934 12.5239 37.1344 11.4225 36.3569 10.8411C36.0659 10.6236 35.3716 10.1673 34.379 9.89941V9.58652C34.379 8.61574 33.592 7.82871 32.6212 7.82871C31.6504 7.82871 30.8634 8.61574 30.8634 9.58652V10.007C29.2461 10.5416 28.0439 11.9398 27.7145 13.6881C27.4021 15.3456 27.9504 16.9574 29.1454 17.8948C30.3002 18.8005 31.9435 19.45 33.5473 20.0168C34.6978 20.4236 34.7324 21.3002 34.6507 21.7867C34.5113 22.6166 33.813 23.5133 32.6095 23.5214C31.2807 23.5308 30.9333 23.4758 29.9439 22.8285C29.1314 22.2969 28.0421 22.5246 27.5106 23.3372C26.9791 24.1496 27.2069 25.239 28.0192 25.7706C29.1007 26.4782 29.9226 26.8027 30.8635 26.9422V27.2912C30.8635 28.262 31.6505 29.049 32.6213 29.049C33.5921 29.049 34.3791 28.262 34.3791 27.2912V26.7546C36.4715 26.0632 37.8093 24.2047 38.1179 22.3698C38.5415 19.8482 37.1757 17.5707 34.7189 16.7021Z" fill="#133E6D"/>
<path d="M56.6287 42.6039C53.3388 39.3138 47.9854 39.3137 44.6956 42.6039L39.4213 47.878H36.9201C37.9859 46.4391 38.6168 44.6592 38.6168 42.7351C38.6168 41.7643 37.8298 40.9773 36.859 40.9773H31.0224C29.1149 40.9773 27.2832 40.112 25.3438 39.1958C23.3097 38.235 21.2063 37.2413 18.7469 37.0778C16.5959 36.9345 14.4398 37.17 12.3385 37.7768C10.0916 38.4255 8.47551 40.42 8.2757 42.7239H2.61426C1.64348 42.7239 0.856445 43.5109 0.856445 44.4817V58.2422C0.856445 59.213 1.64348 60 2.61426 60H38.4939C40.5732 60 42.5281 59.1902 43.9987 57.7199L56.6288 45.0898C57.3152 44.4033 57.3152 43.2902 56.6287 42.6039ZM4.37207 46.2394H8.25484V56.4844H4.37207V46.2394ZM41.5128 55.2339C40.7063 56.0404 39.6341 56.4844 38.4938 56.4844H11.7704V43.1951C11.773 42.2551 12.4077 41.4159 13.3137 41.1544C15.0216 40.6611 16.7712 40.4695 18.5136 40.5855C20.3076 40.7048 22.0244 41.5159 23.8422 42.3746C26.0467 43.4161 28.3262 44.4929 31.0224 44.4929H34.7918C34.0986 46.3935 32.3141 47.7732 30.2005 47.8718C30.1398 47.8655 21.1247 47.862 21.1247 47.862C20.1539 47.862 19.3669 48.649 19.3669 49.6198C19.3669 50.5905 20.1539 51.3776 21.1247 51.3776L40.1494 51.3936C40.6156 51.3936 41.0627 51.2085 41.3923 50.8787L47.1814 45.0898C48.1111 44.16 49.3472 43.648 50.6621 43.648C51.3664 43.648 52.048 43.795 52.6723 44.0743L41.5128 55.2339Z" fill="#133E6D"/>
</svg>
