<svg width="54" height="60" viewBox="0 0 54 60" fill="none" xmlns="http://www.w3.org/2000/svg">
<path d="M53.1503 49.9246L45.7116 35.0459C48.1465 31.4548 49.5706 27.1252 49.5706 22.4689C49.5706 10.0795 39.4911 0 27.1017 0C14.7123 0 4.63282 10.0795 4.63282 22.4689C4.63282 27.1252 6.05692 31.4552 8.49222 35.0468L1.05265 49.9246C0.78028 50.4698 0.809577 51.1166 1.12955 51.6348C1.44999 52.153 2.01578 52.4689 2.62507 52.4689H11.1601L16.2811 59.2969C16.6152 59.7418 17.1371 60 17.6873 60C18.4165 60 18.991 59.5651 19.2597 59.0282L26.313 44.9222C26.5748 44.9313 26.8376 44.9377 27.1017 44.9377C27.3658 44.9377 27.6286 44.9313 27.8904 44.9222L34.9436 59.0282C35.2114 59.5642 35.7864 60 36.5161 60C37.0658 60 37.5881 59.7418 37.9218 59.2969L43.0433 52.4689H51.5783C52.1876 52.4689 52.7534 52.153 53.0734 51.6348C53.3938 51.1166 53.4231 50.4698 53.1503 49.9246ZM17.3875 54.912L13.4452 49.6564C13.1133 49.2137 12.5924 48.9532 12.039 48.9532H5.46915L10.9239 38.0447C14.0211 41.2601 18.0641 43.5585 22.601 44.4846L17.3875 54.912ZM8.14844 22.4689C8.14844 12.0181 16.6509 3.51562 27.1017 3.51562C37.5524 3.51562 46.0549 12.0181 46.0549 22.4689C46.0549 32.9196 37.5524 41.4221 27.1017 41.4221C16.6509 41.4221 8.14844 32.9196 8.14844 22.4689ZM42.1639 48.9532C41.611 48.9532 41.09 49.2137 40.7577 49.6564L36.8159 54.912L31.602 44.4846C36.1393 43.558 40.1827 41.2601 43.28 38.0438L48.7338 48.9528H42.1639V48.9532Z" fill="#133E6D"/>
<path d="M36.0743 25.3844L40.9834 19.525C41.3725 19.0608 41.4951 18.4291 41.3079 17.8532C41.1207 17.2769 40.6501 16.8379 40.0628 16.691L32.6475 14.8361L28.5912 8.35648C28.2699 7.84286 27.7068 7.53113 27.1012 7.53113C26.4956 7.53113 25.9325 7.84286 25.6112 8.35648L21.5559 14.8361L14.141 16.691C13.5532 16.8379 13.0827 17.2769 12.8954 17.8528C12.7087 18.4291 12.8309 19.0608 13.22 19.525L18.1291 25.3844L17.6008 33.0093C17.5591 33.6136 17.831 34.1968 18.3209 34.5529C19.0647 35.0935 19.8214 34.8376 20.0114 34.7612L27.1012 31.9038L34.1911 34.7617C34.7527 34.9878 35.3913 34.9091 35.8811 34.5534C36.3714 34.1972 36.6433 33.614 36.6016 33.0098L36.0743 25.3844ZM32.9244 23.6696C32.6324 24.0184 32.4868 24.4661 32.5184 24.9197L32.9006 30.4509L27.7586 28.3781C27.1887 28.1483 26.6888 28.2793 26.4443 28.3781L21.3023 30.4509L21.6854 24.9202C21.7165 24.4666 21.571 24.0184 21.2789 23.6696L17.7184 19.4202L23.0967 18.0748C23.538 17.9645 23.9188 17.6875 24.1601 17.3021L27.1017 12.6022L30.0437 17.3021C30.285 17.6875 30.6658 17.9645 31.1071 18.0748L36.4854 19.4202L32.9244 23.6696Z" fill="#133E6D"/>
</svg>
