<svg width="60" height="60" viewBox="0 0 60 60" fill="none" xmlns="http://www.w3.org/2000/svg">
<path d="M29.998 7.03009C29.0273 7.03009 28.2402 7.81712 28.2402 8.7879C28.2402 9.75868 29.0273 10.5457 29.998 10.5457C35.8145 10.5457 40.5467 15.277 40.5467 21.0926C40.5467 22.0634 41.3337 22.8504 42.3045 22.8504C43.2753 22.8504 44.0623 22.0634 44.0623 21.0926C44.0623 13.3385 37.7532 7.03009 29.998 7.03009Z" fill="#133E6D"/>
<path d="M25.4688 0.472284C17.527 2.13178 11.0875 8.50959 9.39313 16.5007C7.96239 23.2486 9.72547 30.0232 14.2303 35.0875C16.4323 37.5628 17.6952 40.8304 17.6952 44.0613V47.577C17.6952 49.916 19.2265 51.9032 21.3389 52.5914C22.0336 56.6959 25.5961 59.9987 29.9998 59.9987C34.4025 59.9987 37.9659 56.697 38.6608 52.5914C40.7732 51.9032 42.3045 49.916 42.3045 47.5769V44.0612C42.3045 40.8239 43.5716 37.5956 45.872 34.9711C49.2392 31.1297 51.0936 26.2008 51.0936 21.0926C51.0936 7.7842 38.9121 -2.33623 25.4688 0.472284ZM29.9998 56.4832C27.7402 56.4832 25.7591 54.9284 25.0275 52.8387H34.9721C34.2406 54.9284 32.2595 56.4832 29.9998 56.4832ZM38.7889 47.577C38.7889 48.5462 38.0004 49.3348 37.0311 49.3348H22.9686C21.9993 49.3348 21.2108 48.5462 21.2108 47.577V45.8192H38.7889V47.577ZM43.2282 32.654C40.7766 35.4509 39.2683 38.8235 38.8856 42.3035H21.1145C20.7322 38.8217 19.2277 35.4158 16.8573 32.7509C13.1028 28.5303 11.6357 22.873 12.8323 17.23C14.2291 10.6424 19.5963 5.29103 26.188 3.91373C37.4408 1.56213 47.578 10.0128 47.578 21.0926C47.578 25.3479 46.0332 29.4538 43.2282 32.654Z" fill="#133E6D"/>
<path d="M5.27344 21.0926H1.75781C0.787031 21.0926 0 21.8796 0 22.8504C0 23.8212 0.787031 24.6082 1.75781 24.6082H5.27344C6.24422 24.6082 7.03125 23.8212 7.03125 22.8504C7.03125 21.8796 6.24422 21.0926 5.27344 21.0926Z" fill="#133E6D"/>
<path d="M6.00131 12.3035L3.51541 9.8176C2.82904 9.13111 1.716 9.13111 1.02951 9.8176C0.343027 10.5041 0.343027 11.617 1.02951 12.3035L3.51541 14.7894C4.20178 15.4759 5.31482 15.476 6.00131 14.7894C6.68779 14.1029 6.68779 12.99 6.00131 12.3035Z" fill="#133E6D"/>
<path d="M6.00131 30.9114C5.31482 30.2249 4.20178 30.2249 3.51541 30.9114L1.02951 33.3973C0.343027 34.0838 0.343027 35.1967 1.02951 35.8832C1.71588 36.5697 2.82893 36.5698 3.51541 35.8832L6.00131 33.3973C6.68779 32.7108 6.68779 31.5979 6.00131 30.9114Z" fill="#133E6D"/>
<path d="M58.2422 21.0926H54.7266C53.7558 21.0926 52.9688 21.8796 52.9688 22.8504C52.9688 23.8212 53.7558 24.6082 54.7266 24.6082H58.2422C59.213 24.6082 60 23.8212 60 22.8504C60 21.8796 59.213 21.0926 58.2422 21.0926Z" fill="#133E6D"/>
<path d="M58.9701 9.8176C58.2837 9.13111 57.1706 9.13111 56.4842 9.8176L53.9983 12.3035C53.3118 12.99 53.3118 14.1029 53.9983 14.7894C54.6846 15.4758 55.7977 15.4759 56.4842 14.7894L58.9701 12.3035C59.6565 11.617 59.6565 10.5041 58.9701 9.8176Z" fill="#133E6D"/>
<path d="M58.9701 33.3973L56.4842 30.9114C55.7978 30.2249 54.6847 30.2249 53.9983 30.9114C53.3118 31.5979 53.3118 32.7108 53.9983 33.3973L56.4842 35.8832C57.1705 36.5695 58.2836 36.5697 58.9701 35.8832C59.6565 35.1967 59.6565 34.0838 58.9701 33.3973Z" fill="#133E6D"/>
</svg>
