<svg width="60" height="61" viewBox="0 0 60 61" fill="none" xmlns="http://www.w3.org/2000/svg">
<path d="M50.3451 27.9033C49.7757 27.9033 49.2297 28.1295 48.8271 28.5321C48.4245 28.9347 48.1983 29.4807 48.1983 30.0501V53.6649C48.201 54.199 48.0045 54.7148 47.6472 55.1118C47.29 55.5088 46.7976 55.7583 46.2662 55.8117H13.6348C13.1034 55.7583 12.611 55.5088 12.2537 55.1118C11.8965 54.7148 11.7 54.199 11.7027 53.6649V30.0501C11.7027 29.4807 11.4765 28.9347 11.0739 28.5321C10.6713 28.1295 10.1252 27.9033 9.55587 27.9033C8.9865 27.9033 8.44045 28.1295 8.03785 28.5321C7.63525 28.9347 7.40907 29.4807 7.40907 30.0501V53.6649C7.40814 55.3364 8.05713 56.9429 9.2189 58.1447C10.3807 59.3465 11.9642 60.0496 13.6348 60.1053H46.2662C47.9368 60.0496 49.5203 59.3465 50.6821 58.1447C51.8438 56.9429 52.4928 55.3364 52.4919 53.6649V30.0501C52.4919 29.4807 52.2657 28.9347 51.8631 28.5321C51.4605 28.1295 50.9145 27.9033 50.3451 27.9033Z" fill="#133E6D"/>
<path d="M59.1685 21.9137L31.26 0.445673C30.8847 0.156696 30.4242 0 29.9505 0C29.4768 0 29.0163 0.156696 28.6409 0.445673L0.732512 21.9137C0.321398 22.2737 0.0630417 22.7769 0.0101029 23.3208C-0.0428359 23.8647 0.113627 24.4083 0.447602 24.8408C0.781577 25.2734 1.26792 25.5622 1.80751 25.6486C2.3471 25.735 2.89932 25.6123 3.35161 25.3056L29.9505 4.84662L56.5494 25.3056C56.9241 25.5965 57.3846 25.755 57.8589 25.7565C58.1868 25.7557 58.5101 25.6798 58.8041 25.5347C59.0981 25.3896 59.3549 25.179 59.5549 24.9192C59.9011 24.469 60.0549 23.9 59.9825 23.3366C59.91 22.7733 59.6173 22.2617 59.1685 21.9137Z" fill="#133E6D"/>
<path d="M22.4367 21.4629C21.3752 21.4629 20.3375 21.7776 19.4549 22.3674C18.5723 22.9571 17.8844 23.7953 17.4782 24.776C17.072 25.7567 16.9657 26.8358 17.1728 27.8769C17.3799 28.918 17.891 29.8743 18.6416 30.6249C19.3922 31.3755 20.3485 31.8867 21.3896 32.0938C22.4307 32.3008 23.5099 32.1946 24.4905 31.7883C25.4712 31.3821 26.3095 30.6942 26.8992 29.8116C27.4889 28.929 27.8037 27.8914 27.8037 26.8299C27.8037 25.4065 27.2382 24.0413 26.2317 23.0348C25.2252 22.0283 23.8601 21.4629 22.4367 21.4629ZM22.4367 27.9033C22.2244 27.9033 22.0169 27.8403 21.8403 27.7224C21.6638 27.6044 21.5262 27.4368 21.445 27.2406C21.3637 27.0445 21.3425 26.8287 21.3839 26.6205C21.4253 26.4122 21.5276 26.221 21.6777 26.0709C21.8278 25.9207 22.0191 25.8185 22.2273 25.7771C22.4355 25.7357 22.6513 25.7569 22.8475 25.8382C23.0436 25.9194 23.2112 26.057 23.3292 26.2335C23.4471 26.41 23.5101 26.6176 23.5101 26.8299C23.5101 27.1146 23.397 27.3876 23.1957 27.5889C22.9944 27.7902 22.7214 27.9033 22.4367 27.9033Z" fill="#133E6D"/>
<path d="M32.0973 41.8575C32.0973 42.919 32.4121 43.9566 33.0018 44.8392C33.5915 45.7218 34.4297 46.4097 35.4104 46.816C36.3911 47.2222 37.4703 47.3285 38.5113 47.1214C39.5524 46.9143 40.5088 46.4031 41.2593 45.6525C42.0099 44.9019 42.5211 43.9456 42.7282 42.9045C42.9353 41.8634 42.829 40.7843 42.4228 39.8036C42.0165 38.8229 41.3286 37.9847 40.446 37.395C39.5634 36.8053 38.5258 36.4905 37.4643 36.4905C36.0409 36.4905 34.6758 37.0559 33.6693 38.0624C32.6627 39.069 32.0973 40.4341 32.0973 41.8575ZM38.5377 41.8575C38.5377 42.0698 38.4747 42.2773 38.3568 42.4538C38.2389 42.6304 38.0712 42.7679 37.8751 42.8492C37.6789 42.9304 37.4631 42.9517 37.2549 42.9103C37.0467 42.8688 36.8554 42.7666 36.7053 42.6165C36.5552 42.4664 36.4529 42.2751 36.4115 42.0669C36.3701 41.8587 36.3914 41.6429 36.4726 41.4467C36.5538 41.2506 36.6914 41.0829 36.8679 40.965C37.0445 40.847 37.252 40.7841 37.4643 40.7841C37.749 40.7841 38.022 40.8972 38.2233 41.0985C38.4246 41.2998 38.5377 41.5728 38.5377 41.8575Z" fill="#133E6D"/>
<path d="M35.3175 22.4289L20.9983 43.897C20.6876 44.3702 20.5765 44.9471 20.689 45.502C20.8016 46.0568 21.1288 46.5448 21.5994 46.8595C21.9548 47.0984 22.3735 47.2254 22.8016 47.2245C23.1552 47.2227 23.5029 47.1335 23.8137 46.965C24.1246 46.7965 24.389 46.5537 24.5835 46.2584L38.9027 24.7904C39.2046 24.315 39.3077 23.74 39.1896 23.1893C39.0715 22.6386 38.7417 22.1564 38.2714 21.8466C37.8011 21.5368 37.2278 21.4242 36.6752 21.5331C36.1227 21.6421 35.6351 21.9638 35.3175 22.4289Z" fill="#133E6D"/>
</svg>
