<svg width="37" height="60" viewBox="0 0 37 60" fill="none" xmlns="http://www.w3.org/2000/svg">
<path d="M33.8688 41.1247H27.3035V33.8418C32.6911 30.6882 36.318 24.8396 36.318 18.1589C36.3179 8.14601 28.1719 0 18.159 0C8.14613 0 0 8.14601 0 18.159C0 24.8397 3.62686 30.6883 9.0145 33.8419V41.1248H2.44921C1.73429 41.1248 1.09054 41.5575 0.820662 42.2195C0.550781 42.8816 0.7087 43.641 1.21986 44.1408L16.9297 59.4989C17.2713 59.833 17.7152 60 18.1589 60C18.6026 60 19.0465 59.8329 19.3881 59.4989L35.0979 44.1408C35.6091 43.641 35.767 42.8817 35.4971 42.2195C35.2274 41.5575 34.5836 41.1247 33.8688 41.1247ZM3.51712 18.159C3.51712 10.0853 10.0854 3.51712 18.159 3.51712C26.2327 3.51712 32.8009 10.0853 32.8009 18.159C32.8009 26.2327 26.2327 32.8009 18.159 32.8009C10.0854 32.8009 3.51712 26.2326 3.51712 18.159ZM18.159 55.7821L6.76366 44.6419H10.7731C11.7443 44.6419 12.5316 43.8545 12.5316 42.8833V35.4243C14.3043 36.0035 16.1954 36.318 18.159 36.318C20.1226 36.318 22.0138 36.0035 23.7864 35.4243V42.8833C23.7864 43.8545 24.5738 44.6419 25.545 44.6419H29.5544L18.159 55.7821Z" fill="#133E6D"/>
<path d="M17.988 16.2109C16.1674 15.5381 15.8656 15.0989 15.8722 14.3545C15.8852 12.9029 17.3357 12.749 17.9561 12.7555C18.8692 12.7595 20.3181 13.189 20.3181 14.3241C20.3181 15.2953 21.1054 16.0826 22.0766 16.0826C23.0478 16.0826 23.8352 15.2953 23.8352 14.3241C23.8352 11.7485 21.9792 10.0943 19.8081 9.49306V8.20885C19.8081 7.23765 19.0207 6.45028 18.0495 6.45028C17.0783 6.45028 16.291 7.23765 16.291 8.20885V9.44312C15.5309 9.63551 14.8351 9.96014 14.2521 10.4061C13.043 11.331 12.3694 12.722 12.3551 14.3231C12.3227 17.9425 15.5478 19.0817 17.0978 19.6291" fill="#133E6D"/>
<path d="M17.0978 19.6291C19.5405 20.4668 20.4539 20.9769 20.4456 21.9098C20.4327 23.3486 19.0092 23.509 18.3783 23.509C18.3726 23.509 18.367 23.509 18.3615 23.5089C17.4482 23.5049 15.9995 23.0754 15.9995 21.9404C15.9995 20.9692 15.2121 20.1818 14.2409 20.1818C13.2698 20.1818 12.4824 20.9692 12.4824 21.9404C12.4824 24.5161 14.3384 26.1703 16.5096 26.7714V28.1093C16.5096 29.0805 17.297 29.8679 18.2682 29.8679C19.2394 29.8679 20.0268 29.0805 20.0268 28.1093V26.8226C20.7865 26.6298 21.4829 26.304 22.0656 25.8584C23.2747 24.9335 23.9484 23.5424 23.9627 21.9413C23.9956 18.2713 20.1259 16.9442 17.988 16.2109" fill="#133E6D"/>
</svg>
